<svg style="position: absolute; width: 0; height: 0; overflow: hidden;" aria-hidden="true" version="1.1" xmlns="http://www.w3.org/2000/svg" xmlns:xlink="http://www.w3.org/1999/xlink">
    <style>
        .default-palette, .palette0 {color: currentColor;
            --color0: #050019;
        }
    </style>
    <defs>
        <symbol id="shop" viewBox="0 0 34 34" fill="none" xmlns:xlink="http://www.w3.org/1999/xlink">
            <rect fill="url(#pattern0_172_49)" width="34" height="34" />
            <defs>
                <pattern id="pattern0_172_49" width="1" height="1" patternContentUnits="objectBoundingBox" />
            </defs>
        </symbol>
        <symbol id="logo" viewBox="0 0 50 50" fill="none" xmlns:xlink="http://www.w3.org/1999/xlink">
            <rect fill="url(#pattern0_169_3)" width="50" height="50" />
            <defs>
                <pattern id="pattern0_169_3" width="1" height="1" patternContentUnits="objectBoundingBox" />
            </defs>
        </symbol>
        <symbol id="bourger" viewBox="0 0 34 25" fill="var(--color0, #050019)">
            <path d="M32.8667 25H1.1333c-0.3005 0-0.5888-0.1646-0.8014-0.4576C0.1194 24.2493 0 23.8519 0 23.4375s0.1194-0.8118 0.3319-1.1049c0.2126-0.293 0.5009-0.4576 0.8014-0.4576h31.7334c0.3005 0 0.5888 0.1646 0.8014 0.4576C33.8806 22.6257 34 23.0231 34 23.4375s-0.1194 0.8118-0.3319 1.1049C33.4555 24.8354 33.1672 25 32.8667 25z" />
            <path d="M32.8667 14.0625H1.1333c-0.3005 0-0.5888-0.1646-0.8014-0.4576C0.1194 13.3118 0 12.9144 0 12.5s0.1194-0.8118 0.3319-1.1049c0.2126-0.293 0.5009-0.4576 0.8014-0.4576h31.7334c0.3005 0 0.5888 0.1646 0.8014 0.4576C33.8806 11.6882 34 12.0856 34 12.5s-0.1194 0.8118-0.3319 1.1049c-0.2126 0.293-0.5009 0.4576-0.8014 0.4576z" />
            <path d="M32.8667 3.125H1.1333c-0.3005 0-0.5888-0.1646-0.8014-0.4577C0.1194 2.3743 0 1.9769 0 1.5625s0.1194-0.8118 0.3319-1.1049C0.5445 0.1646 0.8328 0 1.1333 0h31.7334c0.3005 0 0.5888 0.1646 0.8014 0.4576C33.8806 0.7507 34 1.1481 34 1.5625s-0.1194 0.8118-0.3319 1.1048c-0.2126 0.2931-0.5009 0.4577-0.8014 0.4577z" />
        </symbol>
        <symbol id="account" viewBox="0 0 34 37" fill="var(--color0, #050019)">
            <path d="M17.087 5.751c1.0964 0 2.1682 0.3008 3.0798 0.8642 0.9117 0.5635 1.6222 1.3643 2.0418 2.3013 0.4195 0.9369 0.5293 1.9679 0.3154 2.9626s-0.7419 1.9084-1.5171 2.6255c-0.7753 0.7171-1.763 1.2055-2.8384 1.4033-1.0753 0.1979-2.1899 0.0964-3.2029-0.2918-1.0129-0.3881-1.8787-1.0453-2.4878-1.8885-0.6091-0.8433-0.9342-1.8347-0.9342-2.8488 0-1.36 0.584-2.6643 1.6236-3.6259 1.0396-0.9616 2.4496-1.5019 3.9198-1.5019zM17.087 3.7c-1.5349-1e-4-3.0354 0.421-4.3117 1.2098-1.2762 0.7888-2.271 1.91-2.8584 3.2218-0.5874 1.3117-0.7411 2.7551-0.4416 4.1477 0.2994 1.3925 1.0386 2.6717 2.124 3.6756 1.0854 1.004 2.4682 1.6877 3.9737 1.9647 1.5054 0.277 3.0659 0.1349 4.484-0.4085 1.4181-0.5433 2.6302-1.4635 3.483-2.644 0.8527-1.1806 1.3079-2.5685 1.3079-3.9883 0-1.904-0.8176-3.7299-2.2731-5.0762C21.1194 4.4563 19.1454 3.7 17.087 3.7z" />
            <path d="M28 31.45h-2.2v-5.3958c0-1.4311-0.5795-2.8035-1.6109-3.8155-1.0315-1.0119-2.4304-1.5804-3.8891-1.5804h-6.6c-1.4587 0-2.8576 0.5685-3.8891 1.5804C8.7795 23.2507 8.2 24.6231 8.2 26.0542V31.45H6v-5.3958c0-2.0035 0.8113-3.925 2.2553-5.3416C9.6993 19.2959 11.6578 18.5 13.7 18.5h6.6c2.0422 0 4.0007 0.7959 5.4447 2.2126C27.1888 22.1292 28 24.0507 28 26.0542z" />
            <path stroke-width="2" stroke="var(--color0, #050019)" fill="none" d="M17 1c8.7586 0 16 7.7537 16 17.5 0 9.7463-7.2414 17.5-16 17.5-8.7586 0-16-7.7537-16-17.5C1 8.7537 8.2414 1 17 1z" />
        </symbol>
    </defs>
</svg>